<svg width="20" height="20" viewBox="0 0 20 20" fill="none" xmlns="http://www.w3.org/2000/svg">
<path fill-rule="evenodd" clip-rule="evenodd" d="M14.5333 5.197C14.5666 5.25527 14.625 5.29689 14.7 5.29689C16.7 5.29689 18.3333 6.92841 18.3333 8.92619V13.8707C18.3333 15.8685 16.7 17.5 14.7 17.5H5.29996C3.29163 17.5 1.66663 15.8685 1.66663 13.8707V8.92619C1.66663 6.92841 3.29163 5.29689 5.29996 5.29689C5.36663 5.29689 5.43329 5.2636 5.45829 5.197L5.50829 5.09711C5.53702 5.03665 5.5665 4.97455 5.59644 4.9115C5.80962 4.46246 6.04548 3.96567 6.19163 3.6737C6.57496 2.92453 7.22496 2.50832 8.03329 2.5H11.9583C12.7666 2.50832 13.425 2.92453 13.8083 3.6737C13.9396 3.93592 14.1395 4.35833 14.3323 4.76545C14.372 4.84942 14.4115 4.93274 14.45 5.01387L14.5333 5.197ZM13.925 8.39345C13.925 8.80966 14.2583 9.14262 14.675 9.14262C15.0916 9.14262 15.4333 8.80966 15.4333 8.39345C15.4333 7.97725 15.0916 7.63596 14.675 7.63596C14.2583 7.63596 13.925 7.97725 13.925 8.39345ZM8.55829 9.68368C8.94996 9.29245 9.45829 9.08435 9.99996 9.08435C10.5416 9.08435 11.05 9.29245 11.4333 9.67536C11.8166 10.0583 12.025 10.566 12.025 11.1071C12.0166 12.2225 11.1166 13.1299 9.99996 13.1299C9.45829 13.1299 8.94996 12.9218 8.56663 12.5388C8.18329 12.1559 7.97496 11.6482 7.97496 11.1071V11.0988C7.96663 10.5744 8.17496 10.0666 8.55829 9.68368ZM12.3083 13.4212C11.7166 14.0122 10.9 14.3785 9.99996 14.3785C9.12496 14.3785 8.30829 14.0372 7.68329 13.4212C7.06663 12.7969 6.72496 11.9811 6.72496 11.1071C6.71663 10.2414 7.05829 9.42564 7.67496 8.80133C8.29996 8.17703 9.12496 7.83574 9.99996 7.83574C10.875 7.83574 11.7 8.17703 12.3166 8.79301C12.9333 9.41731 13.275 10.2414 13.275 11.1071C13.2666 12.0144 12.9 12.8302 12.3083 13.4212Z" fill="white"/>
</svg>
