<svg width="29" height="29" viewBox="0 0 29 29" fill="none" xmlns="http://www.w3.org/2000/svg">
<path fill-rule="evenodd" clip-rule="evenodd" d="M9.44331 26.1666H19.5544C23.5097 26.1666 26.1661 23.3921 26.1661 19.2637V9.73609C26.1661 5.60772 23.5097 2.83325 19.5556 2.83325H9.44331C5.48914 2.83325 2.83276 5.60772 2.83276 9.73609V19.2637C2.83276 23.3921 5.48914 26.1666 9.44331 26.1666ZM10.4141 13.3333C8.8057 13.3333 7.49878 12.0246 7.49878 10.4166C7.49878 8.80866 8.8057 7.49998 10.4141 7.49998C12.0214 7.49998 13.3295 8.80866 13.3295 10.4166C13.3295 12.0246 12.0214 13.3333 10.4141 13.3333ZM23.6232 17.9229C24.0138 18.9247 23.8109 20.1286 23.3932 21.1207C22.8982 22.3006 21.9502 23.194 20.7559 23.5841C20.2257 23.7575 19.6696 23.8333 19.1147 23.8333H9.28232C8.30389 23.8333 7.43809 23.5985 6.72832 23.1615C6.28369 22.887 6.20509 22.2537 6.53475 21.8431C7.08614 21.1568 7.63049 20.4682 8.17953 19.7735C9.22601 18.4443 9.93108 18.059 10.7148 18.3973C11.0327 18.537 11.3518 18.7465 11.6803 18.968C12.5555 19.5628 13.7721 20.3803 15.3746 19.4929C16.4713 18.8787 17.1073 17.8251 17.6612 16.9077L17.6705 16.8923C17.7098 16.8279 17.7487 16.7636 17.7874 16.6994L17.7875 16.6994C17.9736 16.3914 18.1573 16.0875 18.365 15.8075C18.6255 15.4572 19.591 14.3615 20.8416 15.1417C21.6382 15.6329 22.3081 16.2975 23.0249 17.0091C23.2982 17.2812 23.493 17.5906 23.6232 17.9229Z" fill="#9E9E9E"/>
</svg>
